<svg width="16" height="16" viewBox="0 0 16 16" fill="none" xmlns="http://www.w3.org/2000/svg">
<path d="M11.517 3.12845C11.1435 3.29274 10.705 3.21493 10.3861 2.89605L10.3164 2.82634C9.89814 2.40804 9.55137 2.40628 9.1381 2.81956L9.0693 2.88835C8.6555 3.30215 8.03167 3.29849 7.61337 2.88019L7.54366 2.81049C7.12536 2.39219 6.77859 2.39042 6.3648 2.80422L6.296 2.87302C5.88272 3.28629 5.25837 3.28316 4.84014 2.86493L4.77036 2.79515C4.35213 2.37692 4.349 1.75257 4.76227 1.33929L4.83107 1.27049C5.24487 0.856696 5.8687 0.86035 6.28693 1.27859L6.35671 1.34836C6.77494 1.76659 7.12178 1.76842 7.53557 1.35462L7.60437 1.28583C8.01765 0.87255 8.64193 0.875617 9.06023 1.29392L9.12994 1.36362C9.54824 1.78193 9.89449 1.78421 10.3083 1.37041L10.3771 1.30162C10.7909 0.887817 11.4147 0.891471 11.833 1.30977L11.9027 1.37948C12.2862 1.76293 12.7719 1.83485 13.1852 1.42157L13.2196 1.38718C13.5812 1.02549 14.1712 1.02863 14.5369 1.39435L14.6067 1.46413C14.9724 1.82985 14.9756 2.41981 14.6139 2.78149L14.5795 2.81589C14.1662 3.22917 14.2381 3.71489 14.6216 4.09834L14.6913 4.16805C15.1096 4.58635 15.1132 5.21018 14.6994 5.62398L14.6306 5.69277C14.2168 6.10657 14.2191 6.45282 14.6374 6.87112L14.7071 6.94082C15.1254 7.35913 15.1285 7.98341 14.7152 8.39669L14.6464 8.46548C14.2326 8.87928 14.2345 9.22612 14.6527 9.64435L14.7225 9.71412C15.1407 10.1324 15.1444 10.7562 14.7306 11.17L14.6618 11.2388C14.2485 11.6521 13.6241 11.6489 13.2059 11.2307L13.1361 11.1609C12.7179 10.7427 12.7148 10.1183 13.128 9.70505L13.1968 9.63626C13.6106 9.22246 13.6089 8.87569 13.1906 8.45739L13.1209 8.38769C12.7026 7.96939 12.6989 7.34555 13.1127 6.93175L13.1815 6.86296C13.5948 6.44968 13.593 6.10292 13.1747 5.68461L13.105 5.61491C12.7795 5.28944 12.7051 4.83973 12.883 4.46109L1.76829 15.5758C1.39983 15.9443 0.79913 15.9408 0.426553 15.5682C0.0539752 15.1957 0.0505178 14.595 0.418976 14.2265L11.517 3.12845Z" fill="#FF0037"/>
</svg>
