<svg width="26" height="15" viewBox="0 0 26 15" fill="none" xmlns="http://www.w3.org/2000/svg">
<path d="M13.2274 10.8902C14.2842 10.8902 14.8125 10.1857 14.8125 9.21703L14.8125 9.0409C14.8125 7.98414 15.6051 7.19157 16.6619 7.19157L16.838 7.19157C17.8948 7.19157 18.3351 6.75125 18.3351 5.69449L18.3351 5.51836C18.3351 4.4616 19.1277 3.66902 20.1844 3.66902L20.3605 3.66902C21.4173 3.66902 21.8576 3.22871 21.8576 2.17194L21.8576 1.99582C21.8576 0.939056 22.6502 0.146484 23.707 0.146484L23.8831 0.146484C24.9398 0.146484 25.7324 0.939057 25.7324 1.99582L25.7324 2.17195C25.7324 3.22871 24.9398 4.02128 23.8831 4.02128L23.707 4.02128C22.6502 4.02128 22.2099 4.4616 22.2099 5.51836L22.2099 5.69449C22.2099 6.75125 21.4173 7.54382 20.3605 7.54382L20.1844 7.54382C19.1277 7.54382 18.6873 7.98414 18.6873 9.0409L18.6873 9.21703C18.6873 10.2738 17.8948 11.0664 16.838 11.0664L16.6619 11.0664C15.6932 11.0664 14.9887 11.5947 14.9887 12.6515L14.9887 12.7396C14.9887 13.6637 14.2395 14.4128 13.3155 14.4128L13.1393 14.4128C12.2152 14.4128 11.4661 13.6637 11.4661 12.7396L11.4661 12.6515C11.4661 11.5947 10.7616 11.0664 9.79292 11.0664L9.61679 11.0664C8.56003 11.0664 7.76746 10.2738 7.76746 9.21703L7.76746 9.0409C7.76746 7.98414 7.32714 7.54382 6.27037 7.54382L6.09425 7.54382C5.03748 7.54382 4.24491 6.75125 4.24491 5.69449L4.24491 5.51836C4.24491 4.4616 3.8046 4.02128 2.74783 4.02128L2.5717 4.02128C1.51494 4.02128 0.722374 3.22871 0.722374 2.17194L0.722374 1.99582C0.722374 0.939055 1.51494 0.146483 2.5717 0.146483L2.74784 0.146483C3.8046 0.146483 4.59717 0.939056 4.59717 1.99582L4.59717 2.17194C4.59717 3.22871 5.03748 3.66902 6.09425 3.66902L6.27037 3.66902C7.32714 3.66902 8.11971 4.4616 8.11971 5.51836L8.11971 5.69449C8.11971 6.75125 8.56003 7.19157 9.61679 7.19157L9.79292 7.19157C10.8497 7.19157 11.6423 7.98414 11.6423 9.0409L11.6423 9.21703C11.6423 10.1857 12.1706 10.8902 13.2274 10.8902Z" fill="#181818"/>
</svg>
