<svg width="35" height="35" viewBox="0 0 35 35" fill="none" xmlns="http://www.w3.org/2000/svg">
<path d="M25.3541 30.7392L25.3541 30.6501C25.3541 29.5803 26.062 29.0454 27.0355 29.0454L27.2125 29.0454C28.2744 29.0454 29.0708 28.243 29.0708 27.1732L29.0708 26.9949C29.0708 26.0143 29.6018 25.3011 30.6637 25.3011L30.7522 25.3011C31.8141 25.3011 32.4336 24.6771 32.4336 23.6073L32.4336 11.3922C32.4336 10.3224 31.8141 9.69838 30.7522 9.69838L30.6637 9.69838C29.6018 9.69838 29.0708 8.98518 29.0708 8.00453L29.0708 7.82623C29.0708 6.75644 28.2744 5.95409 27.2125 5.95409L27.0355 5.95409C26.062 5.95409 25.3541 5.41919 25.3541 4.3494L25.3541 4.26025C25.3541 3.19045 24.7346 2.56641 23.6727 2.56641L11.3278 2.56641C10.2659 2.56641 9.64643 3.19045 9.64643 4.26025L9.64643 4.3494C9.64643 5.41919 8.93848 5.95409 7.96505 5.95409L7.78806 5.95409C6.72614 5.95409 5.92969 6.75644 5.92969 7.82623L5.92969 8.00453C5.92969 8.98518 5.39873 9.69838 4.3368 9.69838L4.24831 9.69838C3.18638 9.69838 2.56693 10.3224 2.56693 11.3922L2.56693 23.6073C2.56693 24.6771 3.18638 25.3011 4.24831 25.3011L4.3368 25.3011C5.39873 25.3011 5.92969 26.0143 5.92969 26.9949L5.92969 27.1732C5.92969 28.243 6.72614 29.0454 7.78806 29.0454L7.96505 29.0454C8.93848 29.0454 9.64643 29.5803 9.64643 30.6501L9.64643 30.7392C9.64643 31.809 10.2659 32.4331 11.3278 32.4331L23.6727 32.4331C24.7346 32.4331 25.3541 31.809 25.3541 30.7392Z" stroke="#3A3358" stroke-width="2"/>
<path d="M25.8984 11.8237C25.8313 11.6618 25.733 11.5148 25.609 11.391C25.4852 11.267 25.3381 11.1687 25.1763 11.1016C25.0145 11.0345 24.841 11 24.6658 11C24.4906 11 24.3171 11.0345 24.1552 11.1016C23.9934 11.1687 23.8464 11.267 23.7225 11.391L15.3335 19.7812L12.2772 16.7234C12.027 16.4732 11.6877 16.3327 11.3339 16.3327C10.9801 16.3327 10.6409 16.4732 10.3907 16.7234C10.1405 16.9735 10 17.3128 10 17.6666C10 18.0203 10.1405 18.3596 10.3907 18.6097L14.3902 22.609C14.5141 22.733 14.6611 22.8313 14.8229 22.8984C14.9848 22.9655 15.1583 23 15.3335 23C15.5087 23 15.6822 22.9655 15.844 22.8984C16.0059 22.8313 16.1529 22.733 16.2767 22.609L25.609 13.2773C25.733 13.1535 25.8313 13.0065 25.8984 12.8446C25.9655 12.6828 26 12.5093 26 12.3341C26 12.159 25.9655 11.9855 25.8984 11.8237Z" fill="black"/>
</svg>
